<?xml version="1.0" encoding="utf-8"?>
<!-- Generator: Adobe Illustrator 21.0.1, SVG Export Plug-In . SVG Version: 6.00 Build 0)  -->
<svg version="1.1" id="Capa_1" xmlns="http://www.w3.org/2000/svg" xmlns:xlink="http://www.w3.org/1999/xlink" x="0px" y="0px"
	 viewBox="0 0 321.3 59.9" style="enable-background:new 0 0 321.3 59.9;" xml:space="preserve">
<style type="text/css">
	.st0{fill:#FFFFFF;}
	.st1{fill:#F9F9F9;}
</style>
<title>logo</title>
<g id="Capa_2">
	<g id="Capa_1-2">
		<path class="st0" d="M116.9,36.6c-0.2,8,5.6,10.5,12.8,10.5c4.1,0,10.3-2.2,10.3-7.9c0-4.4-4.4-6.2-8-7.1l-8.8-2.1
			c-4.6-1.1-8.8-3.3-8.8-9.4c0-3.8,2.5-11,13.5-11c7.7,0,14.5,4.2,14.4,12.1h-3.7c-0.2-6-5.1-9-10.7-9c-5.1,0-9.8,2-9.8,7.8
			c0,3.7,2.7,5.2,5.9,6l9.5,2.4c5.5,1.5,10.1,3.9,10.1,10.3c0,2.7-1.1,11.2-14.9,11.2c-9.2,0-16-4.2-15.6-13.7L116.9,36.6z"/>
		<path class="st0" d="M147.8,21.3h3.4v4.9h0.1c1.3-3.4,5-5.7,9-5.7c7.9,0,10.3,4.2,10.3,10.9v18.2h-3.4V31.9c0-4.9-1.6-8.5-7.2-8.5
			s-8.8,4.2-8.9,9.7v16.5h-3.4L147.8,21.3z"/>
		<path class="st0" d="M175.8,29.9c0.3-6.6,5-9.5,11.4-9.5c5,0,10.4,1.5,10.4,9.1v15c-0.1,1,0.6,1.9,1.6,2.1c0.1,0,0.3,0,0.4,0
			c0.4,0,0.7-0.1,1.1-0.2v2.9c-0.7,0.2-1.5,0.2-2.2,0.2c-3.5,0-4-2-4-4.9h-0.1c-2.4,3.7-4.9,5.7-10.3,5.7c-5.2,0-9.5-2.6-9.5-8.3
			c0-7.9,7.7-8.2,15.1-9.1c2.9-0.3,4.4-0.7,4.4-3.8c0-4.6-3.3-5.8-7.4-5.8c-4.3,0-7.4,2-7.6,6.6L175.8,29.9z M194.2,34.1H194
			c-0.4,0.8-2,1.1-2.9,1.3c-5.9,1-13.1,1-13.1,6.5c0,3.5,3.1,5.6,6.3,5.6c5.3,0,9.9-3.3,9.9-8.9V34.1z"/>
		<path class="st0" d="M203.4,21.3h3.2v5.4h0.1c1.6-3.8,5.5-6.2,10.1-6.2c8.6,0,12.7,6.9,12.7,14.9s-4.1,14.9-12.7,14.9
			c-4.2,0-8.3-2.1-9.8-6.2h-0.1v15.8h-3.5V21.3z M216.8,23.3c-7.6,0-9.9,5.6-9.9,12c0,5.8,2.6,12,9.9,12c6.6,0,9.2-6.2,9.2-12
			S223.3,23.3,216.8,23.3"/>
		<path class="st0" d="M260.2,23.6c-0.5-3.9-4.3-6.8-8.5-6.8c-7.7,0-10.6,6.6-10.6,13.4c0,6.5,2.9,13.1,10.6,13.1
			c5.3,0,8.2-3.6,8.9-8.8h8.3c-0.9,9.7-7.6,16-17.2,16c-12.1,0-19.2-9-19.2-20.3c0-11.6,7.1-20.6,19.2-20.6c8.6,0,15.8,5,16.9,14.1
			L260.2,23.6z"/>
		<path class="st0" d="M272.5,29.9c0.4-7.3,7-9.5,13.3-9.5c5.6,0,12.4,1.3,12.4,8v14.8c0,2.6,0.3,5.1,1,6.3h-7.9
			c-0.3-0.9-0.5-1.8-0.5-2.7c-2.5,2.6-6.1,3.5-9.5,3.5c-5.4,0-9.6-2.7-9.6-8.5c0-6.4,4.8-7.9,9.6-8.6s9.2-0.5,9.2-3.7
			c0-3.3-2.3-3.8-5-3.8c-3,0-4.9,1.2-5.1,4.3L272.5,29.9z M290.4,35.7c-1.3,1.2-4,1.2-6.5,1.6s-4.6,1.3-4.6,4.2s2.2,3.6,4.8,3.6
			c6.1,0,6.3-4.8,6.3-6.5L290.4,35.7z"/>
		<path class="st0" d="M303.1,21.2h7.4v5.3h0.1c1.6-3.6,5.1-5.9,9-6c0.6,0,1.2,0.1,1.7,0.3V28c-0.9-0.2-1.9-0.3-2.8-0.3
			c-5.7,0-7.7,4.1-7.7,9.1v12.7H303L303.1,21.2z"/>
		<path class="st1" d="M31,50.6c8.9-8.9,23.4-8.9,32.3,0l5.7-5.7c-9.5-9.5-24-11.8-36-5.7l0,0l-6.4-6.5c15.7-9.5,35.7-7,48.7,5.9
			l6.5-6.5C65.3,15.5,39.3,13,19.9,26L14,20.1C36.8,4,67.8,6.6,87.6,26.3l6.8-6.8c-26-26-68.3-26-94.3,0L31,50.6z"/>
	</g>
</g>
</svg>
